REM DIRINDEX 1\8,1\2\11,1\3\12,1\3\14,1\5\15,1\5\16,1\6\17,1\6\18,1\4\19,1\4\20,1\4\21,1\4\22,1\7\23,1\7\24,1\7\25,1\2\9\26,1\2\9\27,1\2\10\28,1\2\10\29,1\2\10\30,1\2\10\31,1\2\10\32,1\3\13\33,1\3\13\34,1\3\13\35
REM DIRNAME cjc123,folder01,folder02,folder03,folder04,folder05,folder06,folder07,folder08,folder09,folder10,folder11,folder12,folder13,folder14,folder15,folder16,folder17,folder18,folder19,folder20,folder21,folder22,folder23,folder24,folder25,folder26,folder27,folder28,folder29,folder30,folder31,folder32,folder33,folder34
TITLE ""
FILE "68 068_UNIT7_SET2.mp3" MP3
  TRACK 01 AUDIO
    TITLE "11:cjc123_6722"
    INDEX 01 00:00:00
  TRACK 02 AUDIO
    TITLE "0:"
    INDEX 01 00:02:49
  TRACK 03 AUDIO
    TITLE "28:cjc123_6723"
    INDEX 01 00:03:25
  TRACK 04 AUDIO
    TITLE "0:"
    INDEX 01 00:04:52
  TRACK 05 AUDIO
    TITLE "29:cjc123_6724"
    INDEX 01 00:04:60
  TRACK 06 AUDIO
    TITLE "0:"
    INDEX 01 00:05:73
  TRACK 07 AUDIO
    TITLE "30:cjc123_6725"
    INDEX 01 00:06:04
  TRACK 08 AUDIO
    TITLE "0:"
    INDEX 01 00:07:13
  TRACK 09 AUDIO
    TITLE "31:cjc123_6726"
    INDEX 01 00:08:13
  TRACK 10 AUDIO
    TITLE "0:"
    INDEX 01 00:13:22
  TRACK 11 AUDIO
    TITLE "32:cjc123_6727"
    INDEX 01 00:13:51
  TRACK 12 AUDIO
    TITLE "0:"
    INDEX 01 00:17:70
  TRACK 13 AUDIO
    TITLE "28:cjc123_6728"
    INDEX 01 00:18:23
  TRACK 14 AUDIO
    TITLE "0:"
    INDEX 01 00:19:36
  TRACK 15 AUDIO
    TITLE "29:cjc123_6729"
    INDEX 01 00:19:48
  TRACK 16 AUDIO
    TITLE "0:"
    INDEX 01 00:21:72
  TRACK 17 AUDIO
    TITLE "30:cjc123_6730"
    INDEX 01 00:22:07
  TRACK 18 AUDIO
    TITLE "0:"
    INDEX 01 00:23:22
  TRACK 19 AUDIO
    TITLE "31:cjc123_6731"
    INDEX 01 00:24:06
  TRACK 20 AUDIO
    TITLE "0:"
    INDEX 01 00:27:22
  TRACK 21 AUDIO
    TITLE "32:cjc123_6732"
    INDEX 01 00:27:38
  TRACK 22 AUDIO
    TITLE "0:"
    INDEX 01 00:30:46
  TRACK 23 AUDIO
    TITLE "28:cjc123_6733"
    INDEX 01 00:31:12
  TRACK 24 AUDIO
    TITLE "0:"
    INDEX 01 00:32:27
  TRACK 25 AUDIO
    TITLE "29:cjc123_6734"
    INDEX 01 00:32:39
  TRACK 26 AUDIO
    TITLE "0:"
    INDEX 01 00:33:46
  TRACK 27 AUDIO
    TITLE "30:cjc123_6735"
    INDEX 01 00:33:54
  TRACK 28 AUDIO
    TITLE "0:"
    INDEX 01 00:34:69
  TRACK 29 AUDIO
    TITLE "31:cjc123_6736"
    INDEX 01 00:35:41
  TRACK 30 AUDIO
    TITLE "0:"
    INDEX 01 00:40:70
  TRACK 31 AUDIO
    TITLE "32:cjc123_6737"
    INDEX 01 00:41:44
  TRACK 32 AUDIO
    TITLE "0:"
    INDEX 01 00:46:54
  TRACK 33 AUDIO
    TITLE "28:cjc123_6738"
    INDEX 01 00:47:07
  TRACK 34 AUDIO
    TITLE "0:"
    INDEX 01 00:48:12
  TRACK 35 AUDIO
    TITLE "29:cjc123_6739"
    INDEX 01 00:48:20
  TRACK 36 AUDIO
    TITLE "0:"
    INDEX 01 00:49:61
  TRACK 37 AUDIO
    TITLE "30:cjc123_6740"
    INDEX 01 00:49:67
  TRACK 38 AUDIO
    TITLE "0:"
    INDEX 01 00:50:72
  TRACK 39 AUDIO
    TITLE "31:cjc123_6741"
    INDEX 01 00:51:52
  TRACK 40 AUDIO
    TITLE "0:"
    INDEX 01 00:55:40
  TRACK 41 AUDIO
    TITLE "32:cjc123_6742"
    INDEX 01 00:56:02
  TRACK 42 AUDIO
    TITLE "0:"
    INDEX 01 00:59:38
  TRACK 43 AUDIO
    TITLE "28:cjc123_6743"
    INDEX 01 01:00:08
  TRACK 44 AUDIO
    TITLE "0:"
    INDEX 01 01:01:09
  TRACK 45 AUDIO
    TITLE "29:cjc123_6744"
    INDEX 01 01:01:21
  TRACK 46 AUDIO
    TITLE "0:"
    INDEX 01 01:03:16
  TRACK 47 AUDIO
    TITLE "30:cjc123_6745"
    INDEX 01 01:03:24
  TRACK 48 AUDIO
    TITLE "0:"
    INDEX 01 01:04:19
  TRACK 49 AUDIO
    TITLE "31:cjc123_6746"
    INDEX 01 01:04:66
  TRACK 50 AUDIO
    TITLE "0:"
    INDEX 01 01:10:39
  TRACK 51 AUDIO
    TITLE "32:cjc123_6747"
    INDEX 01 01:11:03
  TRACK 52 AUDIO
    TITLE "0:"
    INDEX 01 01:16:46
  TRACK 53 AUDIO
    TITLE "28:cjc123_6748"
    INDEX 01 01:17:16
  TRACK 54 AUDIO
    TITLE "0:"
    INDEX 01 01:18:25
  TRACK 55 AUDIO
    TITLE "29:cjc123_6749"
    INDEX 01 01:18:47
  TRACK 56 AUDIO
    TITLE "0:"
    INDEX 01 01:19:70
  TRACK 57 AUDIO
    TITLE "30:cjc123_6750"
    INDEX 01 01:19:74
  TRACK 58 AUDIO
    TITLE "0:"
    INDEX 01 01:21:06
  TRACK 59 AUDIO
    TITLE "31:cjc123_6751"
    INDEX 01 01:21:63
  TRACK 60 AUDIO
    TITLE "0:"
    INDEX 01 01:25:55
  TRACK 61 AUDIO
    TITLE "32:cjc123_6752"
    INDEX 01 01:26:27
  TRACK 62 AUDIO
    TITLE "0:"
    INDEX 01 01:31:47
  TRACK 63 AUDIO
    TITLE "28:cjc123_6753"
    INDEX 01 01:32:04
  TRACK 64 AUDIO
    TITLE "0:"
    INDEX 01 01:34:08
  TRACK 65 AUDIO
    TITLE "29:cjc123_6754"
    INDEX 01 01:34:20
  TRACK 66 AUDIO
    TITLE "0:"
    INDEX 01 01:36:25
  TRACK 67 AUDIO
    TITLE "30:cjc123_6755"
    INDEX 01 01:36:33
  TRACK 68 AUDIO
    TITLE "0:"
    INDEX 01 01:38:30
  TRACK 69 AUDIO
    TITLE "31:cjc123_6756"
    INDEX 01 01:39:10
  TRACK 70 AUDIO
    TITLE "0:"
    INDEX 01 01:42:63
  TRACK 71 AUDIO
    TITLE "32:cjc123_6757"
    INDEX 01 01:43:31
  TRACK 72 AUDIO
    TITLE "0:"
    INDEX 01 01:47:27
  TRACK 73 AUDIO
    TITLE "28:cjc123_6758"
    INDEX 01 01:47:74
  TRACK 74 AUDIO
    TITLE "0:"
    INDEX 01 01:49:10
  TRACK 75 AUDIO
    TITLE "29:cjc123_6759"
    INDEX 01 01:49:20
  TRACK 76 AUDIO
    TITLE "0:"
    INDEX 01 01:51:13
  TRACK 77 AUDIO
    TITLE "30:cjc123_6760"
    INDEX 01 01:51:27
  TRACK 78 AUDIO
    TITLE "0:"
    INDEX 01 01:52:40
  TRACK 79 AUDIO
    TITLE "31:cjc123_6761"
    INDEX 01 01:53:12
  TRACK 80 AUDIO
    TITLE "0:"
    INDEX 01 01:57:17
  TRACK 81 AUDIO
    TITLE "32:cjc123_6762"
    INDEX 01 01:57:57
  TRACK 82 AUDIO
    TITLE "0:"
    INDEX 01 02:02:24
  TRACK 83 AUDIO
    TITLE "28:cjc123_6763"
    INDEX 01 02:02:42
  TRACK 84 AUDIO
    TITLE "0:"
    INDEX 01 02:03:63
  TRACK 85 AUDIO
    TITLE "29:cjc123_6764"
    INDEX 01 02:03:67
  TRACK 86 AUDIO
    TITLE "0:"
    INDEX 01 02:05:42
  TRACK 87 AUDIO
    TITLE "30:cjc123_6765"
    INDEX 01 02:05:48
  TRACK 88 AUDIO
    TITLE "0:"
    INDEX 01 02:06:63
  TRACK 89 AUDIO
    TITLE "31:cjc123_6766"
    INDEX 01 02:07:31
  TRACK 90 AUDIO
    TITLE "0:"
    INDEX 01 02:11:43
  TRACK 91 AUDIO
    TITLE "32:cjc123_6767"
    INDEX 01 02:11:74
  TRACK 92 AUDIO
    TITLE "0:"
    INDEX 01 02:16:07
  TRACK 93 AUDIO
    TITLE "28:cjc123_6768"
    INDEX 01 02:16:54
  TRACK 94 AUDIO
    TITLE "0:"
    INDEX 01 02:17:53
  TRACK 95 AUDIO
    TITLE "29:cjc123_6769"
    INDEX 01 02:17:61
  TRACK 96 AUDIO
    TITLE "0:"
    INDEX 01 02:19:31
  TRACK 97 AUDIO
    TITLE "30:cjc123_6770"
    INDEX 01 02:19:37
  TRACK 98 AUDIO
    TITLE "0:"
    INDEX 01 02:20:40
  TRACK 99 AUDIO
    TITLE "31:cjc123_6771"
    INDEX 01 02:21:16
  TRACK 100 AUDIO
    TITLE "0:"
    INDEX 01 02:25:70
  TRACK 101 AUDIO
    TITLE "32:cjc123_6772"
    INDEX 01 02:26:29
  TRACK 102 AUDIO
    TITLE "0:"
    INDEX 01 02:33:62
  TRACK 103 AUDIO
    TITLE "28:cjc123_6773"
    INDEX 01 02:34:34
  TRACK 104 AUDIO
    TITLE "0:"
    INDEX 01 02:36:23
  TRACK 105 AUDIO
    TITLE "29:cjc123_6774"
    INDEX 01 02:36:37
  TRACK 106 AUDIO
    TITLE "0:"
    INDEX 01 02:38:73
  TRACK 107 AUDIO
    TITLE "30:cjc123_6775"
    INDEX 01 02:39:04
  TRACK 108 AUDIO
    TITLE "0:"
    INDEX 01 02:40:54
  TRACK 109 AUDIO
    TITLE "31:cjc123_6776"
    INDEX 01 02:41:26
  TRACK 110 AUDIO
    TITLE "0:"
    INDEX 01 02:44:70
  TRACK 111 AUDIO
    TITLE "32:cjc123_6777"
    INDEX 01 02:45:26
  TRACK 112 AUDIO
    TITLE "0:"
    INDEX 01 02:49:55
  TRACK 113 AUDIO
    TITLE "28:cjc123_6778"
    INDEX 01 02:50:10
  TRACK 114 AUDIO
    TITLE "0:"
    INDEX 01 02:51:19
  TRACK 115 AUDIO
    TITLE "29:cjc123_6779"
    INDEX 01 02:51:25
  TRACK 116 AUDIO
    TITLE "0:"
    INDEX 01 02:52:40
  TRACK 117 AUDIO
    TITLE "30:cjc123_6780"
    INDEX 01 02:52:61
  TRACK 118 AUDIO
    TITLE "0:"
    INDEX 01 02:53:67
  TRACK 119 AUDIO
    TITLE "31:cjc123_6781"
    INDEX 01 02:54:43
  TRACK 120 AUDIO
    TITLE "0:"
    INDEX 01 03:00:57
  TRACK 121 AUDIO
    TITLE "32:cjc123_6782"
    INDEX 01 03:01:33
  TRACK 122 AUDIO
    TITLE "0:"
    INDEX 01 03:06:52
  TRACK 123 AUDIO
    TITLE "28:cjc123_6783"
    INDEX 01 03:07:16
  TRACK 124 AUDIO
    TITLE "0:"
    INDEX 01 03:08:08
  TRACK 125 AUDIO
    TITLE "29:cjc123_6784"
    INDEX 01 03:08:23
  TRACK 126 AUDIO
    TITLE "0:"
    INDEX 01 03:09:33
  TRACK 127 AUDIO
    TITLE "30:cjc123_6785"
    INDEX 01 03:09:40
  TRACK 128 AUDIO
    TITLE "0:"
    INDEX 01 03:10:34
  TRACK 129 AUDIO
    TITLE "31:cjc123_6786"
    INDEX 01 03:11:18
  TRACK 130 AUDIO
    TITLE "0:"
    INDEX 01 03:17:16
  TRACK 131 AUDIO
    TITLE "32:cjc123_6787"
    INDEX 01 03:17:57
  TRACK 132 AUDIO
    TITLE "0:"
    INDEX 01 03:23:50
  TRACK 133 AUDIO
    TITLE "28:cjc123_6788"
    INDEX 01 03:23:66
  TRACK 134 AUDIO
    TITLE "0:"
    INDEX 01 03:25:00
  TRACK 135 AUDIO
    TITLE "29:cjc123_6789"
    INDEX 01 03:25:10
  TRACK 136 AUDIO
    TITLE "0:"
    INDEX 01 03:26:64
  TRACK 137 AUDIO
    TITLE "30:cjc123_6790"
    INDEX 01 03:26:70
  TRACK 138 AUDIO
    TITLE "0:"
    INDEX 01 03:28:14
  TRACK 139 AUDIO
    TITLE "31:cjc123_6791"
    INDEX 01 03:28:63
  TRACK 140 AUDIO
    TITLE "0:"
    INDEX 01 03:32:63
  TRACK 141 AUDIO
    TITLE "32:cjc123_6792"
    INDEX 01 03:33:33
  TRACK 142 AUDIO
    TITLE "0:"
    INDEX 01 03:40:04
  TRACK 143 AUDIO
    TITLE "28:cjc123_6793"
    INDEX 01 03:40:29
  TRACK 144 AUDIO
    TITLE "0:"
    INDEX 01 03:41:48
  TRACK 145 AUDIO
    TITLE "29:cjc123_6794"
    INDEX 01 03:41:56
  TRACK 146 AUDIO
    TITLE "0:"
    INDEX 01 03:43:04
  TRACK 147 AUDIO
    TITLE "30:cjc123_6795"
    INDEX 01 03:43:08
  TRACK 148 AUDIO
    TITLE "0:"
    INDEX 01 03:44:25
  TRACK 149 AUDIO
    TITLE "31:cjc123_6796"
    INDEX 01 03:44:70
  TRACK 150 AUDIO
    TITLE "0:"
    INDEX 01 03:48:58
  TRACK 151 AUDIO
    TITLE "32:cjc123_6797"
    INDEX 01 03:49:32
  TRACK 152 AUDIO
    TITLE "0:"
    INDEX 01 03:54:55
